<svg xmlns="http://www.w3.org/2000/svg" viewBox="0 0 200 200" fill="none">
  <title>St Werkz monogram, script S woven through a serif W</title>
  <circle cx="100" cy="100" r="100" fill="#0c0c0c"/>
  <path fill="#f6f3ec" d="M74.24 152.11L36.83 52.93L66.62 52.93L86.56 102.52Z
M109.42 49.89L110.67 49.89L114.13 65.26L79.22 136.74Q79.22 136.74 78.32 139.02Q77.42 141.31 76.52 144.77Q75.62 148.24 75.48 152.11L74.24 152.11L69.53 133Z
M97.92 85.9L110.67 50.02L142.11 108.06L133.11 152.11Z
M151.94 52.93L162.61 52.93L136.43 136.74Q136.43 136.74 135.74 139.16Q135.05 141.59 134.56 145.12Q134.08 148.65 134.49 152.11L133.11 152.11L127.7 138.4Z
M159.7 62.08L149.31 62.08Q150.42 57.92 148.62 55.7Q146.82 53.49 144.05 53.49L142.8 53.49L142.8 52.1L173 52.1L173 53.49Q168.71 53.49 164.97 55.5Q161.23 57.5 159.7 62.08Z
M70.36 62.08L40.3 62.08Q38.5 57.5 34.9 55.5Q31.29 53.49 28.11 53.49L27 53.49L27 52.1L76.73 52.1L76.73 53.49L75.48 53.49Q72.85 53.49 70.84 55.7Q68.83 57.92 70.36 62.08Z"/>
  <path d="M114 35C98 23 72 28 71 52C70 72 100 86 100 100C100 114 130 128 129 148C128 170 100 178 82 165" stroke="#f6f3ec" stroke-width="5.25" stroke-linecap="round" stroke-linejoin="round"/>
  <defs>
    <clipPath id="w-front">
      <rect x="0" y="47.89" width="200" height="24.53"/>
      <rect x="0" y="131.67" width="200" height="23.45"/>
    </clipPath>
  </defs>
  <g clip-path="url(#w-front)">
    <path fill="#f6f3ec" d="M74.24 152.11L36.83 52.93L66.62 52.93L86.56 102.52Z
M109.42 49.89L110.67 49.89L114.13 65.26L79.22 136.74Q79.22 136.74 78.32 139.02Q77.42 141.31 76.52 144.77Q75.62 148.24 75.48 152.11L74.24 152.11L69.53 133Z
M97.92 85.9L110.67 50.02L142.11 108.06L133.11 152.11Z
M151.94 52.93L162.61 52.93L136.43 136.74Q136.43 136.74 135.74 139.16Q135.05 141.59 134.56 145.12Q134.08 148.65 134.49 152.11L133.11 152.11L127.7 138.4Z
M159.7 62.08L149.31 62.08Q150.42 57.92 148.62 55.7Q146.82 53.49 144.05 53.49L142.8 53.49L142.8 52.1L173 52.1L173 53.49Q168.71 53.49 164.97 55.5Q161.23 57.5 159.7 62.08Z
M70.36 62.08L40.3 62.08Q38.5 57.5 34.9 55.5Q31.29 53.49 28.11 53.49L27 53.49L27 52.1L76.73 52.1L76.73 53.49L75.48 53.49Q72.85 53.49 70.84 55.7Q68.83 57.92 70.36 62.08Z"/>
  </g>
</svg>
